<mxfile host="app.diagrams.net" modified="2024-03-19T17:31:15.588Z" agent="Mozilla/5.0 (Windows NT 10.0; Win64; x64) AppleWebKit/537.36 (KHTML, like Gecko) Chrome/122.0.0.0 Safari/537.36" etag="wlJGil-NTERG-zyQJmno" version="24.0.7" type="device">
  <diagram name="Page-1" id="FHZOwNdq_g3pYOlTR_y5">
    <mxGraphModel dx="1687" dy="918" grid="1" gridSize="10" guides="1" tooltips="1" connect="1" arrows="1" fold="1" page="1" pageScale="1" pageWidth="850" pageHeight="1100" math="0" shadow="0">
      <root>
        <mxCell id="0" />
        <mxCell id="1" parent="0" />
        <mxCell id="nyUsEbMO_ZCjgRY4f-LV-1" value="&lt;font style=&quot;font-size: 20px;&quot;&gt;管理员&lt;/font&gt;" style="shape=umlActor;verticalLabelPosition=bottom;verticalAlign=top;html=1;outlineConnect=0;" parent="1" vertex="1">
          <mxGeometry x="80" y="430" width="110" height="190" as="geometry" />
        </mxCell>
        <mxCell id="nyUsEbMO_ZCjgRY4f-LV-6" value="&lt;font style=&quot;font-size: 18px;&quot;&gt;配货管理&lt;/font&gt;" style="ellipse;whiteSpace=wrap;html=1;" parent="1" vertex="1">
          <mxGeometry x="300" y="590" width="160" height="60" as="geometry" />
        </mxCell>
        <mxCell id="nyUsEbMO_ZCjgRY4f-LV-8" value="&lt;font style=&quot;font-size: 18px;&quot;&gt;修改商品分类&lt;/font&gt;" style="ellipse;whiteSpace=wrap;html=1;" parent="1" vertex="1">
          <mxGeometry x="680" y="360" width="120" height="30" as="geometry" />
        </mxCell>
        <mxCell id="nyUsEbMO_ZCjgRY4f-LV-9" value="&lt;font style=&quot;font-size: 18px;&quot;&gt;修改商品信息&lt;/font&gt;" style="ellipse;whiteSpace=wrap;html=1;" parent="1" vertex="1">
          <mxGeometry x="680" y="400" width="120" height="30" as="geometry" />
        </mxCell>
        <mxCell id="nyUsEbMO_ZCjgRY4f-LV-16" value="&lt;span style=&quot;font-size: 18px;&quot;&gt;用户管理&lt;/span&gt;" style="ellipse;whiteSpace=wrap;html=1;" parent="1" vertex="1">
          <mxGeometry x="290" y="740" width="180" height="50" as="geometry" />
        </mxCell>
        <mxCell id="nyUsEbMO_ZCjgRY4f-LV-17" value="&lt;font style=&quot;font-size: 18px;&quot;&gt;更新个人信息&lt;/font&gt;" style="ellipse;whiteSpace=wrap;html=1;" parent="1" vertex="1">
          <mxGeometry x="680" y="440" width="120" height="30" as="geometry" />
        </mxCell>
        <mxCell id="nyUsEbMO_ZCjgRY4f-LV-18" value="&lt;span style=&quot;font-size: 18px;&quot;&gt;商品管理&lt;/span&gt;" style="ellipse;whiteSpace=wrap;html=1;" parent="1" vertex="1">
          <mxGeometry x="300" y="420" width="170" height="60" as="geometry" />
        </mxCell>
        <mxCell id="nyUsEbMO_ZCjgRY4f-LV-20" value="&lt;font style=&quot;font-size: 18px;&quot;&gt;收获地址管理&lt;/font&gt;" style="ellipse;whiteSpace=wrap;html=1;" parent="1" vertex="1">
          <mxGeometry x="680" y="480" width="120" height="30" as="geometry" />
        </mxCell>
        <mxCell id="nyUsEbMO_ZCjgRY4f-LV-22" value="&lt;span style=&quot;font-size: 18px;&quot;&gt;编辑首页推荐&lt;/span&gt;" style="ellipse;whiteSpace=wrap;html=1;" parent="1" vertex="1">
          <mxGeometry x="300" y="280" width="200" height="60" as="geometry" />
        </mxCell>
        <mxCell id="nyUsEbMO_ZCjgRY4f-LV-29" value="&lt;span style=&quot;font-size: 18px;&quot;&gt;冻结用户权限&lt;/span&gt;" style="ellipse;whiteSpace=wrap;html=1;" parent="1" vertex="1">
          <mxGeometry x="580" y="730" width="160" height="40" as="geometry" />
        </mxCell>
        <mxCell id="nyUsEbMO_ZCjgRY4f-LV-37" value="" style="endArrow=classic;html=1;rounded=0;exitX=1;exitY=0.3333333333333333;exitDx=0;exitDy=0;exitPerimeter=0;strokeWidth=2;entryX=0;entryY=0.5;entryDx=0;entryDy=0;" parent="1" source="nyUsEbMO_ZCjgRY4f-LV-1" edge="1" target="nyUsEbMO_ZCjgRY4f-LV-6">
          <mxGeometry width="50" height="50" relative="1" as="geometry">
            <mxPoint x="180" y="749.67" as="sourcePoint" />
            <mxPoint x="280" y="780" as="targetPoint" />
          </mxGeometry>
        </mxCell>
        <mxCell id="nyUsEbMO_ZCjgRY4f-LV-38" value="" style="endArrow=classic;html=1;rounded=0;exitX=1;exitY=0.3333333333333333;exitDx=0;exitDy=0;exitPerimeter=0;strokeWidth=2;entryX=0;entryY=0.5;entryDx=0;entryDy=0;" parent="1" source="nyUsEbMO_ZCjgRY4f-LV-1" target="nyUsEbMO_ZCjgRY4f-LV-22" edge="1">
          <mxGeometry width="50" height="50" relative="1" as="geometry">
            <mxPoint x="150" y="183.00000000000003" as="sourcePoint" />
            <mxPoint x="240" y="470" as="targetPoint" />
          </mxGeometry>
        </mxCell>
        <mxCell id="nyUsEbMO_ZCjgRY4f-LV-39" value="" style="endArrow=classic;html=1;rounded=0;exitX=1;exitY=0.3333333333333333;exitDx=0;exitDy=0;exitPerimeter=0;strokeWidth=2;entryX=0;entryY=0.5;entryDx=0;entryDy=0;" parent="1" source="nyUsEbMO_ZCjgRY4f-LV-1" target="nyUsEbMO_ZCjgRY4f-LV-18" edge="1">
          <mxGeometry width="50" height="50" relative="1" as="geometry">
            <mxPoint x="180" y="418" as="sourcePoint" />
            <mxPoint x="260" y="380" as="targetPoint" />
          </mxGeometry>
        </mxCell>
        <mxCell id="nyUsEbMO_ZCjgRY4f-LV-40" value="" style="endArrow=classic;html=1;rounded=0;strokeWidth=2;dashed=1;entryX=0;entryY=0.5;entryDx=0;entryDy=0;exitX=1;exitY=0.5;exitDx=0;exitDy=0;" parent="1" source="nyUsEbMO_ZCjgRY4f-LV-18" target="nyUsEbMO_ZCjgRY4f-LV-8" edge="1">
          <mxGeometry width="50" height="50" relative="1" as="geometry">
            <mxPoint x="160" y="210" as="sourcePoint" />
            <mxPoint x="420" y="190" as="targetPoint" />
          </mxGeometry>
        </mxCell>
        <mxCell id="nyUsEbMO_ZCjgRY4f-LV-41" value="&lt;font style=&quot;font-size: 15px;&quot;&gt;&amp;lt;&amp;lt;include&amp;gt;&amp;gt;&lt;/font&gt;" style="edgeLabel;html=1;align=center;verticalAlign=middle;resizable=0;points=[];" parent="nyUsEbMO_ZCjgRY4f-LV-40" vertex="1" connectable="0">
          <mxGeometry x="0.2124" y="3" relative="1" as="geometry">
            <mxPoint x="1" y="-20" as="offset" />
          </mxGeometry>
        </mxCell>
        <mxCell id="nyUsEbMO_ZCjgRY4f-LV-43" value="" style="endArrow=classic;html=1;rounded=0;strokeWidth=2;dashed=1;entryX=0;entryY=0.5;entryDx=0;entryDy=0;exitX=1;exitY=0.5;exitDx=0;exitDy=0;" parent="1" source="nyUsEbMO_ZCjgRY4f-LV-18" target="nyUsEbMO_ZCjgRY4f-LV-9" edge="1">
          <mxGeometry width="50" height="50" relative="1" as="geometry">
            <mxPoint x="420" y="260" as="sourcePoint" />
            <mxPoint x="468" y="280" as="targetPoint" />
          </mxGeometry>
        </mxCell>
        <mxCell id="nyUsEbMO_ZCjgRY4f-LV-44" value="&lt;font style=&quot;font-size: 15px;&quot;&gt;&amp;lt;&amp;lt;include&amp;gt;&amp;gt;&lt;/font&gt;" style="edgeLabel;html=1;align=center;verticalAlign=middle;resizable=0;points=[];" parent="nyUsEbMO_ZCjgRY4f-LV-43" vertex="1" connectable="0">
          <mxGeometry x="0.2124" y="3" relative="1" as="geometry">
            <mxPoint x="13" y="-9" as="offset" />
          </mxGeometry>
        </mxCell>
        <mxCell id="nyUsEbMO_ZCjgRY4f-LV-45" value="" style="endArrow=classic;html=1;rounded=0;strokeWidth=2;dashed=1;entryX=0;entryY=0.5;entryDx=0;entryDy=0;exitX=1;exitY=0.5;exitDx=0;exitDy=0;" parent="1" source="nyUsEbMO_ZCjgRY4f-LV-18" target="nyUsEbMO_ZCjgRY4f-LV-17" edge="1">
          <mxGeometry width="50" height="50" relative="1" as="geometry">
            <mxPoint x="410" y="310" as="sourcePoint" />
            <mxPoint x="620" y="280" as="targetPoint" />
          </mxGeometry>
        </mxCell>
        <mxCell id="nyUsEbMO_ZCjgRY4f-LV-46" value="&lt;font style=&quot;font-size: 15px;&quot;&gt;&amp;lt;&amp;lt;include&amp;gt;&amp;gt;&lt;/font&gt;" style="edgeLabel;html=1;align=center;verticalAlign=middle;resizable=0;points=[];" parent="nyUsEbMO_ZCjgRY4f-LV-45" vertex="1" connectable="0">
          <mxGeometry x="0.2124" y="3" relative="1" as="geometry">
            <mxPoint x="23" y="-8" as="offset" />
          </mxGeometry>
        </mxCell>
        <mxCell id="nyUsEbMO_ZCjgRY4f-LV-47" value="" style="endArrow=classic;html=1;rounded=0;strokeWidth=2;dashed=1;entryX=0;entryY=0.5;entryDx=0;entryDy=0;exitX=1;exitY=0.5;exitDx=0;exitDy=0;" parent="1" source="nyUsEbMO_ZCjgRY4f-LV-18" target="nyUsEbMO_ZCjgRY4f-LV-20" edge="1">
          <mxGeometry width="50" height="50" relative="1" as="geometry">
            <mxPoint x="400" y="310" as="sourcePoint" />
            <mxPoint x="610" y="320" as="targetPoint" />
          </mxGeometry>
        </mxCell>
        <mxCell id="nyUsEbMO_ZCjgRY4f-LV-48" value="&lt;font style=&quot;font-size: 15px;&quot;&gt;&amp;lt;&amp;lt;include&amp;gt;&amp;gt;&lt;/font&gt;" style="edgeLabel;html=1;align=center;verticalAlign=middle;resizable=0;points=[];" parent="nyUsEbMO_ZCjgRY4f-LV-47" vertex="1" connectable="0">
          <mxGeometry x="0.2124" y="3" relative="1" as="geometry">
            <mxPoint x="32" y="-2" as="offset" />
          </mxGeometry>
        </mxCell>
        <mxCell id="nyUsEbMO_ZCjgRY4f-LV-65" value="" style="endArrow=classic;html=1;rounded=0;exitX=1;exitY=0.3333333333333333;exitDx=0;exitDy=0;exitPerimeter=0;strokeWidth=2;entryX=0;entryY=0.5;entryDx=0;entryDy=0;" parent="1" source="nyUsEbMO_ZCjgRY4f-LV-1" target="nyUsEbMO_ZCjgRY4f-LV-16" edge="1">
          <mxGeometry width="50" height="50" relative="1" as="geometry">
            <mxPoint x="260" y="619.67" as="sourcePoint" />
            <mxPoint x="340" y="581.67" as="targetPoint" />
          </mxGeometry>
        </mxCell>
        <mxCell id="zIRjLhbYQv0sDOR38Gi6-3" value="" style="endArrow=classic;html=1;rounded=0;strokeWidth=2;dashed=1;entryX=0;entryY=0.5;entryDx=0;entryDy=0;exitX=1;exitY=0.36;exitDx=0;exitDy=0;exitPerimeter=0;" edge="1" parent="1" source="nyUsEbMO_ZCjgRY4f-LV-16" target="nyUsEbMO_ZCjgRY4f-LV-29">
          <mxGeometry width="50" height="50" relative="1" as="geometry">
            <mxPoint x="350" y="615" as="sourcePoint" />
            <mxPoint x="560" y="620" as="targetPoint" />
          </mxGeometry>
        </mxCell>
        <mxCell id="zIRjLhbYQv0sDOR38Gi6-4" value="&lt;font style=&quot;font-size: 15px;&quot;&gt;&amp;lt;&amp;lt;include&amp;gt;&amp;gt;&lt;/font&gt;" style="edgeLabel;html=1;align=center;verticalAlign=middle;resizable=0;points=[];" vertex="1" connectable="0" parent="zIRjLhbYQv0sDOR38Gi6-3">
          <mxGeometry x="0.2124" y="3" relative="1" as="geometry">
            <mxPoint x="-26" y="-18" as="offset" />
          </mxGeometry>
        </mxCell>
        <mxCell id="zIRjLhbYQv0sDOR38Gi6-6" value="&lt;span style=&quot;font-size: 18px;&quot;&gt;解冻用户权限&lt;/span&gt;" style="ellipse;whiteSpace=wrap;html=1;" vertex="1" parent="1">
          <mxGeometry x="850" y="730" width="160" height="40" as="geometry" />
        </mxCell>
        <mxCell id="zIRjLhbYQv0sDOR38Gi6-7" value="" style="endArrow=classic;html=1;rounded=0;strokeWidth=2;dashed=1;entryX=1;entryY=0.5;entryDx=0;entryDy=0;exitX=0;exitY=0.5;exitDx=0;exitDy=0;" edge="1" parent="1" source="zIRjLhbYQv0sDOR38Gi6-6" target="nyUsEbMO_ZCjgRY4f-LV-29">
          <mxGeometry width="50" height="50" relative="1" as="geometry">
            <mxPoint x="770" y="870" as="sourcePoint" />
            <mxPoint x="880" y="842" as="targetPoint" />
          </mxGeometry>
        </mxCell>
        <mxCell id="zIRjLhbYQv0sDOR38Gi6-8" value="&lt;font style=&quot;font-size: 15px;&quot;&gt;&amp;lt;&amp;lt;extend&amp;gt;&amp;gt;&lt;/font&gt;" style="edgeLabel;html=1;align=center;verticalAlign=middle;resizable=0;points=[];" vertex="1" connectable="0" parent="zIRjLhbYQv0sDOR38Gi6-7">
          <mxGeometry x="0.2124" y="3" relative="1" as="geometry">
            <mxPoint x="17" y="-23" as="offset" />
          </mxGeometry>
        </mxCell>
        <mxCell id="zIRjLhbYQv0sDOR38Gi6-9" value="&lt;span style=&quot;font-size: 18px;&quot;&gt;发货商品&lt;/span&gt;" style="ellipse;whiteSpace=wrap;html=1;" vertex="1" parent="1">
          <mxGeometry x="570" y="560" width="160" height="40" as="geometry" />
        </mxCell>
        <mxCell id="zIRjLhbYQv0sDOR38Gi6-10" value="&lt;span style=&quot;font-size: 18px;&quot;&gt;配送商品&lt;/span&gt;" style="ellipse;whiteSpace=wrap;html=1;" vertex="1" parent="1">
          <mxGeometry x="570" y="610" width="160" height="40" as="geometry" />
        </mxCell>
        <mxCell id="zIRjLhbYQv0sDOR38Gi6-11" value="" style="endArrow=classic;html=1;rounded=0;strokeWidth=2;dashed=1;entryX=0;entryY=0.5;entryDx=0;entryDy=0;exitX=1;exitY=0.5;exitDx=0;exitDy=0;" edge="1" parent="1" source="nyUsEbMO_ZCjgRY4f-LV-6" target="zIRjLhbYQv0sDOR38Gi6-9">
          <mxGeometry width="50" height="50" relative="1" as="geometry">
            <mxPoint x="350" y="620" as="sourcePoint" />
            <mxPoint x="560" y="545" as="targetPoint" />
          </mxGeometry>
        </mxCell>
        <mxCell id="zIRjLhbYQv0sDOR38Gi6-12" value="&lt;font style=&quot;font-size: 15px;&quot;&gt;&amp;lt;&amp;lt;include&amp;gt;&amp;gt;&lt;/font&gt;" style="edgeLabel;html=1;align=center;verticalAlign=middle;resizable=0;points=[];" vertex="1" connectable="0" parent="zIRjLhbYQv0sDOR38Gi6-11">
          <mxGeometry x="0.2124" y="3" relative="1" as="geometry">
            <mxPoint x="-16" y="-13" as="offset" />
          </mxGeometry>
        </mxCell>
        <mxCell id="zIRjLhbYQv0sDOR38Gi6-13" value="" style="endArrow=classic;html=1;rounded=0;strokeWidth=2;dashed=1;entryX=0.019;entryY=0.7;entryDx=0;entryDy=0;exitX=1;exitY=0.5;exitDx=0;exitDy=0;entryPerimeter=0;" edge="1" parent="1" source="nyUsEbMO_ZCjgRY4f-LV-6" target="zIRjLhbYQv0sDOR38Gi6-10">
          <mxGeometry width="50" height="50" relative="1" as="geometry">
            <mxPoint x="440" y="710" as="sourcePoint" />
            <mxPoint x="550" y="670" as="targetPoint" />
          </mxGeometry>
        </mxCell>
        <mxCell id="zIRjLhbYQv0sDOR38Gi6-14" value="&lt;font style=&quot;font-size: 15px;&quot;&gt;&amp;lt;&amp;lt;include&amp;gt;&amp;gt;&lt;/font&gt;" style="edgeLabel;html=1;align=center;verticalAlign=middle;resizable=0;points=[];" vertex="1" connectable="0" parent="zIRjLhbYQv0sDOR38Gi6-13">
          <mxGeometry x="0.2124" y="3" relative="1" as="geometry">
            <mxPoint x="-19" y="12" as="offset" />
          </mxGeometry>
        </mxCell>
        <mxCell id="zIRjLhbYQv0sDOR38Gi6-15" value="&lt;span style=&quot;font-size: 18px;&quot;&gt;修改新品上线&lt;/span&gt;" style="ellipse;whiteSpace=wrap;html=1;" vertex="1" parent="1">
          <mxGeometry x="620" y="210" width="200" height="50" as="geometry" />
        </mxCell>
        <mxCell id="zIRjLhbYQv0sDOR38Gi6-16" value="&lt;span style=&quot;font-size: 18px;&quot;&gt;修改热门商品&lt;/span&gt;" style="ellipse;whiteSpace=wrap;html=1;" vertex="1" parent="1">
          <mxGeometry x="620" y="290" width="200" height="40" as="geometry" />
        </mxCell>
        <mxCell id="zIRjLhbYQv0sDOR38Gi6-17" value="" style="endArrow=block;html=1;rounded=0;exitX=0;exitY=0.5;exitDx=0;exitDy=0;strokeWidth=2;endFill=0;entryX=0.95;entryY=0.267;entryDx=0;entryDy=0;entryPerimeter=0;" edge="1" parent="1" source="zIRjLhbYQv0sDOR38Gi6-15" target="nyUsEbMO_ZCjgRY4f-LV-22">
          <mxGeometry width="50" height="50" relative="1" as="geometry">
            <mxPoint x="310" y="280" as="sourcePoint" />
            <mxPoint x="360" y="230" as="targetPoint" />
          </mxGeometry>
        </mxCell>
        <mxCell id="zIRjLhbYQv0sDOR38Gi6-20" value="" style="endArrow=block;html=1;rounded=0;exitX=0;exitY=0.5;exitDx=0;exitDy=0;strokeWidth=2;endFill=0;entryX=0.975;entryY=0.733;entryDx=0;entryDy=0;entryPerimeter=0;" edge="1" parent="1" source="zIRjLhbYQv0sDOR38Gi6-16" target="nyUsEbMO_ZCjgRY4f-LV-22">
          <mxGeometry width="50" height="50" relative="1" as="geometry">
            <mxPoint x="610" y="300" as="sourcePoint" />
            <mxPoint x="510" y="310" as="targetPoint" />
          </mxGeometry>
        </mxCell>
      </root>
    </mxGraphModel>
  </diagram>
</mxfile>
